<svg xmlns="http://www.w3.org/2000/svg" width="960" height="344" viewBox="0 0 960 344">
  <!-- Whole card: dark blue background -->
  <rect width="960" height="344" rx="14" fill="#0D1B2A"/>

  <!-- Green numbers rain covering ENTIRE section -->
  <g font-family="monospace" font-weight="bold">
    <text x="25"  y="-50" font-size="17" fill="#00C853" opacity="0.5">01
      <animate attributeName="y" from="-50" to="400" dur="5.0s" repeatCount="indefinite"/>
    </text>
    <text x="90"  y="-50" font-size="13" fill="#009624" opacity="0.45">10
      <animate attributeName="y" from="-50" to="400" dur="3.6s" begin="0.5s" repeatCount="indefinite"/>
    </text>
    <text x="155" y="-50" font-size="16" fill="#00C853" opacity="0.5">11
      <animate attributeName="y" from="-50" to="400" dur="6.0s" begin="1.0s" repeatCount="indefinite"/>
    </text>
    <text x="220" y="-50" font-size="12" fill="#009624" opacity="0.45">00
      <animate attributeName="y" from="-50" to="400" dur="4.4s" begin="1.5s" repeatCount="indefinite"/>
    </text>
    <text x="285" y="-50" font-size="15" fill="#00C853" opacity="0.5">01
      <animate attributeName="y" from="-50" to="400" dur="5.5s" begin="0.8s" repeatCount="indefinite"/>
    </text>
    <text x="350" y="-50" font-size="13" fill="#009624" opacity="0.45">10
      <animate attributeName="y" from="-50" to="400" dur="3.8s" begin="2.0s" repeatCount="indefinite"/>
    </text>
    <text x="415" y="-50" font-size="17" fill="#00C853" opacity="0.5">11
      <animate attributeName="y" from="-50" to="400" dur="5.2s" begin="0.3s" repeatCount="indefinite"/>
    </text>
    <text x="480" y="-50" font-size="12" fill="#009624" opacity="0.45">00
      <animate attributeName="y" from="-50" to="400" dur="4.6s" begin="1.2s" repeatCount="indefinite"/>
    </text>
    <text x="545" y="-50" font-size="16" fill="#00C853" opacity="0.5">01
      <animate attributeName="y" from="-50" to="400" dur="5.8s" begin="1.8s" repeatCount="indefinite"/>
    </text>
    <text x="610" y="-50" font-size="13" fill="#009624" opacity="0.45">10
      <animate attributeName="y" from="-50" to="400" dur="3.4s" begin="0.7s" repeatCount="indefinite"/>
    </text>
    <text x="675" y="-50" font-size="15" fill="#00C853" opacity="0.5">11
      <animate attributeName="y" from="-50" to="400" dur="6.2s" begin="2.2s" repeatCount="indefinite"/>
    </text>
    <text x="740" y="-50" font-size="12" fill="#009624" opacity="0.45">00
      <animate attributeName="y" from="-50" to="400" dur="4.2s" begin="0.4s" repeatCount="indefinite"/>
    </text>
    <text x="805" y="-50" font-size="16" fill="#00C853" opacity="0.5">01
      <animate attributeName="y" from="-50" to="400" dur="5.3s" begin="1.6s" repeatCount="indefinite"/>
    </text>
    <text x="870" y="-50" font-size="13" fill="#009624" opacity="0.45">10
      <animate attributeName="y" from="-50" to="400" dur="3.9s" begin="2.4s" repeatCount="indefinite"/>
    </text>
    <text x="935" y="-50" font-size="15" fill="#00C853" opacity="0.5">11
      <animate attributeName="y" from="-50" to="400" dur="5.7s" begin="0.9s" repeatCount="indefinite"/>
    </text>
  </g>

  <!-- ============ ROW 1: FRONTEND (top, center) ============ -->
  <rect x="20" y="16" width="920" height="96" rx="12" fill="none" stroke="#00C853" stroke-width="1.5" opacity="0.85"/>

  <text x="480" y="42" font-family="'Press Start 2P', monospace" font-size="13" fill="#00E676" text-anchor="middle">FRONTEND</text>
  <line x1="340" y1="50" x2="620" y2="50" stroke="#00C853" stroke-width="2" opacity="0.6"/>

  <!-- HTML5 -->
  <g transform="translate(273 66) scale(0.171875)">
    <path fill="#fff" d="m48 38l8.61 96.593h110.71l-3.715 41.43l-35.646 9.638l-35.579-9.624l-2.379-26.602H57.94l4.585 51.281l65.427 18.172l65.51-18.172l8.783-98.061H85.824l-2.923-32.71h122.238L208 38z"/>
    <path fill="#ebebeb" d="M128 38H48l8.61 96.593H128v-31.938H85.824l-2.923-32.71H128zm0 147.647l-.041.014l-35.579-9.624l-2.379-26.602H57.94l4.585 51.281l65.427 18.172l.049-.014z"/>
  </g>
  <!-- CSS -->
  <g transform="translate(327 66) scale(0.171875)">
    <path fill="#ebebeb" d="m53.753 102.651l2.862 31.942h71.481v-31.942zM128.095 38H48l2.904 31.942h77.191zm0 180.841v-33.233l-.14.037l-35.574-9.605l-2.274-25.476H58.042l4.475 50.154l65.431 18.164z"/>
    <path fill="#fff" d="m167.318 134.593l-3.708 41.426l-35.625 9.616v33.231l65.483-18.148l.48-5.397l7.506-84.092l.779-8.578L208 38h-80.015v31.942h45.009l-2.906 32.709h-42.103v31.942z"/>
  </g>
  <!-- JavaScript (yellow letters, no box) -->
  <g transform="translate(381 66) scale(0.171875)">
    <path fill="#F0DB4F" d="m67.312 213.932l19.59-11.856c3.78 6.701 7.218 12.371 15.465 12.371c7.905 0 12.889-3.092 12.889-15.12v-81.798h24.058v82.138c0 24.917-14.606 36.259-35.916 36.259c-19.245 0-30.416-9.967-36.087-21.996m85.07-2.576l19.588-11.341c5.157 8.421 11.859 14.607 23.715 14.607c9.969 0 16.325-4.984 16.325-11.858c0-8.248-6.53-11.17-17.528-15.98l-6.013-2.579c-17.357-7.388-28.871-16.668-28.871-36.258c0-18.044 13.748-31.792 35.229-31.792c15.294 0 26.292 5.328 34.196 19.247l-18.731 12.029c-4.125-7.389-8.591-10.31-15.465-10.31c-7.046 0-11.514 4.468-11.514 10.31c0 7.217 4.468 10.139 14.778 14.608l6.014 2.577c20.449 8.765 31.963 17.699 31.963 37.804c0 21.654-17.012 33.51-39.867 33.51c-22.339 0-36.774-10.654-43.819-24.574"/>
  </g>
  <!-- TypeScript (white letters, no box) -->
  <g transform="translate(435 66) scale(0.171875)">
    <path fill="#fff" d="m56.611 128.849l-.081 10.484h33.32v94.679h23.569v-94.679h33.32v-10.281c0-5.689-.121-10.443-.284-10.565c-.122-.162-20.399-.244-44.983-.203l-44.739.122zm149.956-10.741c6.501 1.626 11.459 4.511 16.01 9.224c2.357 2.52 5.851 7.112 6.136 8.209c.081.325-11.053 7.802-17.798 11.987c-.244.163-1.22-.894-2.317-2.519c-3.291-4.795-6.745-6.868-12.028-7.233c-7.761-.529-12.759 3.535-12.718 10.321c0 1.991.284 3.169 1.097 4.795c1.706 3.535 4.876 5.648 14.832 9.955c18.326 7.884 26.168 13.085 31.045 20.48c5.445 8.249 6.664 21.415 2.966 31.208c-4.063 10.646-14.141 17.879-28.323 20.277c-4.388.772-14.791.65-19.504-.203c-10.281-1.829-20.033-6.908-26.047-13.572c-2.357-2.601-6.949-9.387-6.664-9.875c.121-.162 1.178-.812 2.356-1.503c1.138-.65 5.446-3.129 9.509-5.486l7.355-4.267l1.544 2.276c2.154 3.291 6.867 7.802 9.712 9.305c8.167 4.308 19.383 3.698 24.909-1.259c2.357-2.154 3.332-4.389 3.332-7.68c0-2.967-.366-4.267-1.91-6.502c-1.991-2.844-6.054-5.242-17.595-10.24c-13.206-5.689-18.895-9.224-24.096-14.832c-3.007-3.25-5.852-8.452-7.03-12.8c-.975-3.616-1.219-12.678-.447-16.335c2.722-12.759 12.353-21.658 26.25-24.3c4.511-.853 14.994-.528 19.424.569"/>
  </g>
  <!-- React -->
  <g transform="translate(489 66) scale(0.171875)">
    <path fill="#00d8ff" d="M128.001 146.951c10.304 0 18.656-8.353 18.656-18.656s-8.352-18.656-18.656-18.656s-18.656 8.353-18.656 18.656s8.353 18.656 18.656 18.656"/>
    <path stroke="#00d8ff" stroke-width="8.911" d="M128.002 90.363c25.048 0 48.317 3.594 65.862 9.635C215.003 107.275 228 118.306 228 128.295c0 10.409-13.774 22.128-36.475 29.649-17.162 5.686-39.746 8.654-63.523 8.654-24.378 0-47.463-2.786-64.819-8.717C41.225 150.376 28 138.506 28 128.295c0-9.908 12.41-20.854 33.252-28.12 17.61-6.14 41.453-9.812 66.746-9.812z"/>
    <path stroke="#00d8ff" stroke-width="8.911" d="M94.981 109.438c12.514-21.698 27.251-40.06 41.249-52.24c16.864-14.677 32.914-20.425 41.566-15.436c9.017 5.2 12.288 22.988 7.463 46.41c-3.645 17.707-12.359 38.753-24.238 59.351c-12.179 21.118-26.124 39.724-39.931 51.792c-17.471 15.272-34.362 20.799-43.207 15.698c-8.583-4.946-11.865-21.167-7.747-42.852c3.479-18.323 12.21-40.812 24.841-62.723z"/>
    <path stroke="#00d8ff" stroke-width="8.911" d="M95.012 147.578c-12.549-21.674-21.093-43.616-24.659-61.826c-4.293-21.941-1.258-38.716 7.387-43.72c9.009-5.216 26.052.834 43.934 16.712c13.52 12.004 27.403 30.061 39.316 50.639c12.214 21.098 21.368 42.473 24.929 60.461c4.506 22.764.859 40.157-7.978 45.272c-8.574 4.964-24.265-.291-40.996-14.689c-14.136-12.164-29.26-30.959-41.933-52.849Z"/>
  </g>
  <!-- Tailwind -->
  <g transform="translate(543 66) scale(0.171875)">
    <defs>
      <linearGradient id="twg" x1="86.5" x2="163.5" y1="74" y2="185.5" gradientUnits="userSpaceOnUse">
        <stop stop-color="#32b1c1"/>
        <stop offset="1" stop-color="#14c6b7"/>
      </linearGradient>
    </defs>
    <path fill="url(#twg)" fill-rule="evenodd" d="M83 110q9-36 45-36c36 0 40.5 27 58.5 31.5q18 4.502 31.5-13.5q-9 36-45 36c-36 0-40.5-27-58.5-31.5Q96.5 92 83 110m-45 54q9-36 45-36c36 0 40.5 27 58.5 31.5q18 4.502 31.5-13.5q-9 36-45 36c-36 0-40.5-27-58.5-31.5q-18-4.502-31.5 13.5"/>
  </g>
  <!-- Next.js -->
  <g transform="translate(597 66) scale(0.171875)">
    <path fill="#fff" d="M121.451 28.054c-.43.039-1.799.176-3.031.273c-28.406 2.561-55.014 17.889-71.867 41.447C37.17 82.873 31.167 97.731 28.9 113.47c-.801 5.494-.899 7.117-.899 14.565c0 7.449.098 9.072.9 14.565c5.434 37.556 32.16 69.111 68.406 80.802c6.491 2.092 13.333 3.519 21.114 4.379c3.031.332 16.129.332 19.16 0c13.431-1.486 24.809-4.809 36.031-10.538c1.72-.879 2.053-1.114 1.818-1.309c-.156-.118-7.488-9.952-16.285-21.838l-15.992-21.603l-20.04-29.658c-11.026-16.305-20.097-29.639-20.176-29.639c-.078-.019-.156 13.158-.195 29.248c-.059 28.172-.078 29.306-.43 29.97c-.508.958-.899 1.349-1.721 1.78c-.625.312-1.173.371-4.125.371h-3.382l-.9-.567a3.65 3.65 0 0 1-1.31-1.427l-.41-.88l.04-39.198l.058-39.218l.606-.763c.313-.41.978-.938 1.447-1.192c.801-.391 1.114-.43 4.496-.43c3.989 0 4.653.156 5.69 1.29c.293.313 11.143 16.657 24.125 36.344a89122 89122 0 0 0 39.452 59.765l15.836 23.989l.802-.528c7.096-4.614 14.604-11.183 20.547-18.026c12.649-14.526 20.802-32.238 23.539-51.124c.801-5.493.899-7.116.899-14.565s-.098-9.071-.899-14.565c-5.435-37.556-32.161-69.11-68.407-80.801c-6.393-2.073-13.196-3.5-20.821-4.36c-1.877-.196-14.8-.41-16.422-.254m40.938 60.489c.938.469 1.701 1.368 1.975 2.306c.156.509.195 11.379.156 35.875l-.059 35.152l-6.197-9.502l-6.217-9.501v-25.552c0-16.52.078-25.807.195-26.257c.313-1.094.997-1.954 1.936-2.463c.801-.41 1.095-.45 4.164-.45c2.894 0 3.402.04 4.047.392"/>
  </g>
  <!-- Vue.js -->
  <g transform="translate(651 66) scale(0.171875)">
    <path fill="#41b883" d="M182 50h36l-90 155.25L38 50h68.85L128 86l20.7-36z"/>
    <path fill="#41b883" d="m38 50l90 155.25L218 50h-36l-54 93.15L73.55 50z"/>
    <path fill="#fff" d="M73.55 50L128 143.6L182 50h-33.3L128 86l-21.15-36z"/>
  </g>

  <!-- ============ ROW 2: BACKEND & DB (middle, center) ============ -->
  <rect x="20" y="124" width="920" height="96" rx="12" fill="none" stroke="#00B0FF" stroke-width="1.5" opacity="0.85"/>

  <text x="480" y="150" font-family="'Press Start 2P', monospace" font-size="13" fill="#4FC3F7" text-anchor="middle">BACKEND &amp; DB</text>
  <line x1="340" y1="158" x2="620" y2="158" stroke="#00B0FF" stroke-width="2" opacity="0.6"/>

  <!-- Node.js -->
  <g transform="translate(400 174) scale(0.171875)">
    <path fill="#81cd39" d="M119.878 31.116c4.919-2.815 11.325-2.828 16.239 0c24.722 13.97 49.452 27.917 74.17 41.895c4.65 2.619 7.759 7.793 7.712 13.15v84.045c.035 5.579-3.382 10.877-8.287 13.436c-24.641 13.893-49.27 27.802-73.907 41.695c-5.019 2.87-11.554 2.649-16.418-.457c-7.387-4.282-14.787-8.544-22.175-12.822c-1.51-.9-3.212-1.616-4.278-3.08c.943-1.27 2.628-1.428 3.997-1.983c3.083-.981 5.916-2.555 8.748-4.082c.717-.49 1.591-.302 2.278.136c6.317 3.622 12.579 7.35 18.917 10.937c1.352.781 2.721-.256 3.877-.9c24.18-13.667 48.39-27.281 72.567-40.952c.896-.431 1.391-1.382 1.318-2.363c.017-27.725.004-55.454.009-83.18c.102-1.112-.542-2.136-1.549-2.592c-24.555-13.829-49.099-27.678-73.65-41.51a2.56 2.56 0 0 0-2.892-.005c-24.552 13.837-49.09 27.7-73.642 41.527c-1.003.457-1.676 1.464-1.557 2.58c.005 27.726 0 55.455 0 83.184a2.35 2.35 0 0 0 1.336 2.334c6.551 3.715 13.111 7.404 19.667 11.107c3.694 1.987 8.228 3.169 12.298 1.646c3.59-1.288 6.107-4.953 6.039-8.765c.034-27.563-.017-55.13.025-82.69c-.09-1.223 1.071-2.234 2.261-2.118c3.148-.022 6.3-.043 9.448.008c1.314-.03 2.218 1.288 2.056 2.52c-.013 27.738.034 55.476-.021 83.213c.008 7.393-3.029 15.437-9.867 19.054c-8.423 4.363-18.835 3.438-27.157-.746c-7.204-3.596-14.08-7.84-21.156-11.692c-4.918-2.545-8.318-7.864-8.283-13.439V86.161c-.052-5.468 3.182-10.736 7.975-13.317c24.637-13.903 49.27-27.818 73.902-41.728"/>
    <path fill="#81cd39" d="M141.372 89.335c10.745-.692 22.248-.41 31.917 4.884c7.487 4.056 11.637 12.57 11.769 20.887c-.209 1.121-1.382 1.74-2.453 1.663c-3.117-.004-6.236.043-9.353-.021c-1.323.051-2.091-1.168-2.257-2.337c-.896-3.98-3.067-7.921-6.812-9.841c-5.75-2.878-12.416-2.733-18.686-2.673c-4.577.242-9.499.639-13.377 3.33c-2.977 2.039-3.881 6.155-2.819 9.47c1.002 2.38 3.749 3.148 5.998 3.856c12.949 3.387 26.671 3.049 39.373 7.506c5.259 1.817 10.403 5.35 12.203 10.856c2.355 7.38 1.323 16.2-3.928 22.124c-4.258 4.875-10.459 7.529-16.644 8.97c-8.228 1.835-16.767 1.882-25.123 1.067c-7.857-.896-16.034-2.96-22.099-8.313c-5.187-4.504-7.72-11.522-7.469-18.294c.06-1.144 1.199-1.942 2.295-1.848c3.139-.025 6.279-.034 9.418.005c1.255-.09 2.184.994 2.249 2.176c.578 3.791 2.003 7.771 5.31 10.018c6.38 4.117 14.387 3.835 21.693 3.95c6.053-.268 12.848-.349 17.787-4.35c2.606-2.282 3.378-6.1 2.674-9.384c-.763-2.773-3.664-4.065-6.155-4.91c-12.783-4.043-26.659-2.576-39.318-7.149c-5.14-1.816-10.11-5.25-12.084-10.53c-2.755-7.473-1.493-16.717 4.308-22.44c5.656-5.695 13.82-7.888 21.583-8.672"/>
  </g>
  <!-- Express -->
  <g transform="translate(465 174) scale(0.171875)">
    <path fill="#fff" d="M228 182.937a12.73 12.73 0 0 1-15.791-6.005c-9.063-13.567-19.071-26.522-28.69-39.755l-4.171-5.56c-11.454 15.346-22.908 30.08-33.361 45.371a12.23 12.23 0 0 1-15.012 5.894l42.98-57.659l-39.978-52.1a13.29 13.29 0 0 1 15.847 5.56c9.285 13.568 19.572 26.523 29.802 40.257c10.287-13.623 20.462-26.634 29.97-40.09a11.95 11.95 0 0 1 14.901-5.56l-15.513 20.573c-6.95 9.174-13.789 18.404-21.017 27.356a5.56 5.56 0 0 0 0 8.285c13.289 17.626 26.466 35.307 40.033 53.433M28 124.5c1.168-5.56 1.89-11.621 3.503-17.292c9.619-34.195 48.818-48.43 75.785-27.245c15.791 12.4 19.739 29.97 18.961 49.764H37.286c-1.446 35.363 24.075 56.714 56.713 45.816a33.86 33.86 0 0 0 21.518-23.965c1.724-5.56 4.504-6.505 9.786-4.893a45.15 45.15 0 0 1-21.573 32.972a52.26 52.26 0 0 1-60.884-7.784a54.77 54.77 0 0 1-13.678-32.138c0-1.89-.723-3.781-1.112-5.56A861 861 0 0 1 28 124.5m9.397-2.391h80.456c-.501-25.632-16.681-43.814-38.254-43.98c-24.02-.334-41.201 17.458-42.258 43.869z"/>
  </g>
  <!-- MySQL -->
  <g transform="translate(530 174) scale(0.171875)">
    <defs>
      <clipPath id="mclip"><path d="M38 38h180v180H38z"/></clipPath>
    </defs>
    <g clip-path="url(#mclip)">
      <path fill="#fff" fill-rule="evenodd" d="M203.801 178.21c-9.79-.272-17.385.731-23.75 3.409c-1.833.736-4.774.736-5.016 3.043c.98.968 1.098 2.552 1.957 3.894c1.467 2.435 4.041 5.715 6.365 7.417l7.834 5.598c4.774 2.917 10.16 4.622 14.811 7.542c2.694 1.704 5.386 3.894 8.08 5.721c1.372.973 2.203 2.558 3.918 3.163v-.368c-.856-1.091-1.103-2.672-1.956-3.894l-3.677-3.526c-3.547-4.744-7.957-8.884-12.731-12.287c-3.918-2.677-12.484-6.326-14.076-10.825l-.241-.273c2.689-.272 5.872-1.219 8.445-1.949c4.165-1.091 7.957-.851 12.238-1.945l5.88-1.704v-1.091c-2.204-2.189-3.795-5.11-6.119-7.176c-6.242-5.353-13.102-10.586-20.203-14.965c-3.794-2.432-8.692-4.017-12.731-6.081c-1.473-.731-3.918-1.096-4.774-2.312c-2.209-2.672-3.43-6.204-5.021-9.369l-10.037-21.168c-2.203-4.745-3.553-9.49-6.242-13.869c-12.611-20.683-26.324-33.212-47.38-45.502c-4.527-2.555-9.913-3.654-15.64-4.99l-9.18-.49c-1.962-.851-3.919-3.164-5.633-4.26c-6.978-4.38-24.974-13.868-30.12-1.363c-3.305 7.907 4.899 15.692 7.684 19.709c2.085 2.798 4.774 5.96 6.247 9.124c.823 2.067 1.098 4.259 1.957 6.449c1.956 5.352 3.794 11.316 6.365 16.306c1.372 2.555 2.813 5.235 4.527 7.545c.98 1.363 2.695 1.947 3.06 4.136c-1.715 2.435-1.833 6.081-2.813 9.127c-4.409 13.748-2.694 30.78 3.548 40.902c1.962 3.04 6.585 9.734 12.858 7.177c5.509-2.19 4.28-9.124 5.871-15.208c.37-1.458.124-2.432.856-3.408v.273l5.021 10.097c3.795 5.961 10.408 12.167 15.914 16.306c2.936 2.19 5.263 5.964 8.934 7.3v-.368h-.241c-.736-1.091-1.839-1.582-2.818-2.433c-2.203-2.189-4.651-4.867-6.366-7.299c-5.139-6.812-9.666-14.357-13.708-22.142c-1.961-3.771-3.676-7.908-5.262-11.679c-.741-1.461-.741-3.654-1.962-4.379c-1.839 2.672-4.527 4.99-5.88 8.273c-2.327 5.23-2.568 11.679-3.424 18.371c-.494.122-.275 0-.494.272c-3.913-.97-5.263-4.99-6.73-8.393c-3.672-8.638-4.287-22.507-1.104-32.484c.856-2.555 4.533-10.585 3.065-13.018c-.74-2.312-3.183-3.648-4.533-5.475c-1.591-2.312-3.3-5.23-4.403-7.785c-2.936-6.817-4.404-14.357-7.59-21.17c-1.473-3.164-4.041-6.45-6.124-9.367c-2.327-3.286-4.892-5.599-6.73-9.49c-.612-1.363-1.468-3.528-.489-4.99c.242-.973.735-1.363 1.71-1.581c1.59-1.364 6.124.365 7.715 1.09c4.527 1.827 8.322 3.529 12.117 6.081c1.715 1.216 3.553 3.529 5.756 4.14h2.574c3.918.85 8.322.272 11.99 1.363c6.49 2.072 12.364 5.11 17.632 8.398c16.035 10.098 29.26 24.454 38.193 41.611c1.468 2.798 2.08 5.353 3.43 8.273c2.574 5.964 5.757 12.045 8.322 17.888c2.574 5.718 5.021 11.562 8.693 16.306c1.838 2.555 9.18 3.891 12.484 5.23c2.45 1.091 6.242 2.073 8.451 3.409c4.159 2.555 8.322 5.475 12.237 8.273c1.956 1.456 8.081 4.499 8.445 6.926zM78.958 72.487a19.6 19.6 0 0 0-5.015.608v.273h.241c.98 1.947 2.695 3.286 3.918 4.99l2.818 5.84l.242-.272c1.714-1.216 2.573-3.163 2.573-6.08c-.735-.851-.856-1.705-1.468-2.556c-.735-1.216-2.326-1.827-3.309-2.797z"/>
    </g>
  </g>

  <!-- ============ ROW 3: TOOLS (bottom, center) ============ -->
  <rect x="20" y="232" width="920" height="96" rx="12" fill="none" stroke="#00C853" stroke-width="1.5" opacity="0.85"/>

  <text x="480" y="258" font-family="'Press Start 2P', monospace" font-size="13" fill="#00E676" text-anchor="middle">TOOLS</text>
  <line x1="370" y1="266" x2="590" y2="266" stroke="#00C853" stroke-width="2" opacity="0.6"/>

  <!-- Figma -->
  <g transform="translate(338 282) scale(0.171875)">
    <defs>
      <clipPath id="fclip"><path d="M61 28h133.36v200H61z"/></clipPath>
    </defs>
    <g clip-path="url(#fclip)">
      <path fill="#0acf83" d="M94.347 228c18.4 0 33.333-14.933 33.333-33.333v-33.334H94.347c-18.4 0-33.334 14.934-33.334 33.334S75.947 228 94.347 228"/>
      <path fill="#a259ff" d="M61.013 128c0-18.4 14.934-33.333 33.334-33.333h33.333v66.666H94.347c-18.4 0-33.334-14.933-33.334-33.333"/>
      <path fill="#f24e1e" d="M61.013 61.333C61.013 42.933 75.947 28 94.347 28h33.333v66.667H94.347c-18.4 0-33.334-14.934-33.334-33.334"/>
      <path fill="#ff7262" d="M127.68 28h33.333c18.4 0 33.334 14.933 33.334 33.333s-14.934 33.334-33.334 33.334H127.68z"/>
      <path fill="#1abcfe" d="M194.347 128c0 18.4-14.934 33.333-33.334 33.333S127.68 146.4 127.68 128s14.933-33.333 33.333-33.333S194.347 109.6 194.347 128"/>
    </g>
  </g>
  <!-- Git -->
  <g transform="translate(400 282) scale(0.171875)">
    <path fill="#F05032" d="m224.225 119.094l-87.319-87.319a12.87 12.87 0 0 0-14.035-2.793a12.9 12.9 0 0 0-4.177 2.793L100.569 49.9l23 23c5.35-1.875 11.475-.594 15.737 3.669a15.31 15.31 0 0 1 3.631 15.831l22.169 22.169c5.363-1.85 11.55-.657 15.831 3.637a15.32 15.32 0 0 1 3.321 16.706a15.333 15.333 0 0 1-20.029 8.293c-1.86-.771-3.55-1.9-4.973-3.324c-4.5-4.5-5.612-11.125-3.337-16.669l-20.675-20.675v54.407a15.6 15.6 0 0 1 4.062 2.9a15.326 15.326 0 0 1-21.675 21.675a15.32 15.32 0 0 1-3.326-16.704a15.3 15.3 0 0 1 3.326-4.971c1.481-1.475 3.125-2.594 5.019-3.344v-54.913a15.2 15.2 0 0 1-5.019-3.343a15.315 15.315 0 0 1-3.3-16.757L91.644 58.814l-59.875 59.812a12.88 12.88 0 0 0-2.795 14.04a12.9 12.9 0 0 0 2.795 4.179l87.325 87.312a12.9 12.9 0 0 0 4.177 2.793a12.9 12.9 0 0 0 9.858 0a12.9 12.9 0 0 0 4.177-2.793l86.919-86.781a12.88 12.88 0 0 0 3.776-9.109a12.88 12.88 0 0 0-3.776-9.11"/>
  </g>
  <!-- GitHub (white octocat) -->
  <g transform="translate(462 282) scale(0.171875)">
    <path fill="#fff" d="M128.001 30C72.779 30 28 74.77 28 130.001c0 44.183 28.653 81.667 68.387 94.89c4.997.926 6.832-2.169 6.832-4.81c0-2.385-.093-10.262-.136-18.618c-27.82 6.049-33.69-11.799-33.69-11.799c-4.55-11.559-11.104-14.632-11.104-14.632c-9.073-6.207.684-6.079.684-6.079c10.042.705 15.33 10.305 15.33 10.305c8.919 15.288 23.394 10.868 29.1 8.313c.898-6.464 3.489-10.875 6.349-13.372c-22.211-2.529-45.56-11.104-45.56-49.421c0-10.918 3.906-19.839 10.303-26.842c-1.039-2.519-4.462-12.69.968-26.464c0 0 8.398-2.687 27.508 10.25c7.977-2.215 16.531-3.326 25.03-3.364c8.498.038 17.06 1.149 25.051 3.365c19.087-12.939 27.473-10.25 27.473-10.25c5.443 13.773 2.019 23.945.98 26.463c6.412 7.003 10.292 15.924 10.292 26.842c0 38.409-23.394 46.866-45.662 49.341c3.587 3.104 6.783 9.189 6.783 18.519c0 13.38-.116 24.149-.116 27.443c0 2.661 1.8 5.779 6.869 4.797C199.383 211.64 228 174.169 228 130.001C228 74.771 183.227 30 128.001 30M65.454 172.453c-.22.497-1.002.646-1.714.305c-.726-.326-1.133-1.004-.898-1.502c.215-.512.999-.654 1.722-.311c.727.326 1.141 1.01.89 1.508m4.919 4.389c-.477.443-1.41.237-2.042-.462c-.654-.697-.777-1.629-.293-2.078c.491-.442 1.396-.235 2.051.462c.654.706.782 1.631.284 2.078m3.374 5.616c-.613.426-1.615.027-2.234-.863c-.613-.889-.613-1.955.013-2.383c.621-.427 1.608-.043 2.236.84c.611.904.611 1.971-.015 2.406m5.707 6.504c-.548.604-1.715.442-2.57-.383c-.874-.806-1.118-1.95-.568-2.555c.555-.606 1.729-.435 2.59.383c.868.804 1.133 1.957.548 2.555m7.376 2.195c-.242.784-1.366 1.14-2.499.807c-1.13-.343-1.871-1.26-1.642-2.052c.235-.788 1.364-1.159 2.505-.803c1.13.341 1.871 1.252 1.636 2.048m8.394.932c.028.824-.932 1.508-2.121 1.523c-1.196.027-2.163-.641-2.176-1.452c0-.833.939-1.51 2.134-1.53c1.19-.023 2.163.639 2.163 1.459m8.246-.316c.143.804-.683 1.631-1.864 1.851c-1.161.212-2.236-.285-2.383-1.083c-.144-.825.697-1.651 1.856-1.865c1.183-.205 2.241.279 2.391 1.097"/>
  </g>
  <!-- VS Code -->
  <g transform="translate(524 282) scale(0.171875)">
    <path fill="#2489ca" d="M33.716 100.208s-4.735-3.413.947-7.97l13.236-11.836s3.788-3.985 7.792-.513l122.149 92.479v44.346s-.059 6.964-8.996 6.194z"/>
    <path fill="#1070b3" d="m65.2 128.792l-31.484 28.623s-3.236 2.407 0 6.708l14.617 13.295s3.472 3.729 8.601-.513l33.378-25.309z"/>
    <path fill="#0877b9" d="m120.474 129.029l57.741-44.09l-.375-44.109s-2.466-9.627-10.692-4.616l-76.836 69.931z"/>
    <path fill="#3c99d4" d="M168.844 222.968c3.354 3.432 7.418 2.308 7.418 2.308l44.997-22.173c5.76-3.926 4.951-8.798 4.951-8.798V61.898c0-5.82-5.958-7.831-5.958-7.831l-38.999-18.8c-8.522-5.267-14.105.947-14.105.947s7.18-5.168 10.692 4.616v175.075a8 8 0 0 1-.769 3.453c-1.026 2.071-3.255 4.004-8.601 3.195z"/>
  </g>
  <!-- Claude -->
  <g transform="translate(586 282) scale(1.83333)">
    <path fill="#D97757" d="m4.7144 15.9555 4.7174-2.6471.079-.2307-.079-.1275h-.2307l-.7893-.0486-2.6956-.0729-2.3375-.0971-2.2646-.1214-.5707-.1215-.5343-.7042.0546-.3522.4797-.3218.686.0608 1.5179.1032 2.2767.1578 1.6514.0972 2.4468.255h.3886l.0546-.1579-.1336-.0971-.1032-.0972L6.973 9.8356l-2.55-1.6879-1.3356-.9714-.7225-.4918-.3643-.4614-.1578-1.0078.6557-.7225.8803.0607.2246.0607.8925.686 1.9064 1.4754 2.4893 1.8336.3643.3035.1457-.1032.0182-.0728-.164-.2733-1.3539-2.4467-1.445-2.4893-.6435-1.032-.17-.6194c-.0607-.255-.1032-.4674-.1032-.7285L6.287.1335 6.6997 0l.9957.1336.419.3642.6192 1.4147 1.0018 2.2282 1.5543 3.0296.4553.8985.2429.8318.091.255h.1579v-.1457l.1275-1.706.2368-2.0947.2307-2.6957.0789-.7589.3764-.9107.7468-.4918.5828.2793.4797.686-.0668.4433-.2853 1.8517-.5586 2.9021-.3643 1.9429h.2125l.2429-.2429.9835-1.3053 1.6514-2.0643.7286-.8196.85-.9046.5464-.4311h1.0321l.759 1.1293-.34 1.1657-1.0625 1.3478-.8804 1.1414-1.2628 1.7-.7893 1.36.0729.1093.1882-.0183 2.8535-.607 1.5421-.2794 1.8396-.3157.8318.3886.091.3946-.3278.8075-1.967.4857-2.3072.4614-3.4364.8136-.0425.0304.0486.0607 1.5482.1457.6618.0364h1.621l3.0175.2247.7892.522.4736.6376-.079.4857-1.2142.6193-1.6393-.3886-3.825-.9107-1.3113-.3279h-.1822v.1093l1.0929 1.0686 2.0035 1.8092 2.5075 2.3314.1275.5768-.3218.4554-.34-.0486-2.2039-1.6575-.85-.7468-1.9246-1.621h-.1275v.17l.4432.6496 2.3436 3.5214.1214 1.0807-.17.3521-.6071.2125-.6679-.1214-1.3721-1.9246L14.38 17.959l-1.1414-1.9428-.1397.079-.674 7.2552-.3156.3703-.7286.2793-.6071-.4614-.3218-.7468.3218-1.4753.3886-1.9246.3157-1.53.2853-1.9004.17-.6314-.0121-.0425-.1397.0182-1.4328 1.9672-2.1796 2.9446-1.7243 1.8456-.4128.164-.7164-.3704.0667-.6618.4008-.5889 2.386-3.0357 1.4389-1.882.929-1.0868-.0062-.1579h-.0546l-6.3385 4.1164-1.1293.1457-.4857-.4554.0608-.7467.2307-.2429 1.9064-1.3114Z"/>
  </g>
</svg>